<svg width="214" height="37" viewBox="0 0 214 37" fill="none" xmlns="http://www.w3.org/2000/svg">
<path d="M30.6 30C30.2 30.4 29.5833 30.9667 28.75 31.7C27.95 32.4 27.1 33.0667 26.2 33.7C25.3333 34.3334 24.6 34.7334 24 34.9C23.3 35.1 22.6666 35.3167 22.1 35.55C21.5333 35.7834 20.9166 35.9834 20.25 36.15C19.5833 36.35 18.75 36.45 17.75 36.45C16.35 36.45 14.85 36.2 13.25 35.7C11.65 35.2334 10.15 34.65 8.74998 33.95C7.34998 33.2834 6.21664 32.6334 5.34998 32C3.61664 30.7 2.28331 28.95 1.34998 26.75C0.449976 24.5167 -2.44007e-05 21.9 -2.44007e-05 18.9C-2.44007e-05 18.0667 0.0833089 17.1667 0.249976 16.2C0.416642 15.2 0.616642 14.2667 0.849976 13.4C1.08331 12.5 1.31664 11.7834 1.54998 11.25C2.24998 9.65002 3.09998 8.08336 4.09998 6.55002C5.13331 5.01669 6.46664 3.73336 8.09998 2.70002C8.96664 2.13336 10.0666 1.55002 11.4 0.950022C12.7333 0.316688 14.4833 2.18153e-05 16.65 2.18153e-05C16.95 2.18153e-05 17.2666 0.0166893 17.6 0.0500242C17.9333 0.0500242 18.2666 0.0666906 18.6 0.100024C20.4333 0.300023 22.05 0.866689 23.45 1.80002C24.8833 2.73336 26 3.71669 26.8 4.75002C27.1666 5.21669 27.4833 5.83336 27.75 6.60002C28.0166 7.36669 28.15 8.18336 28.15 9.05002C28.15 9.45002 28.1166 9.85002 28.05 10.25C28.0166 10.65 27.9166 11.05 27.75 11.45C27.35 12.6834 26.8 13.8334 26.1 14.9C25.4333 15.9667 24.6 16.8334 23.6 17.5C22.6 18.1334 21.4 18.45 20 18.45C18.7666 18.45 17.8166 18.3667 17.15 18.2C16.4833 18.0334 15.9333 17.7667 15.5 17.4C15.0666 17 14.5666 16.4667 14 15.8C13.5333 15.2334 13.2166 14.6 13.05 13.9C12.8833 13.1667 12.8 12.4834 12.8 11.85C12.8 11.2167 12.8 10.7667 12.8 10.5C12.8 9.70002 13.1333 8.90002 13.8 8.10002C14.5 7.26669 15.3166 6.56669 16.25 6.00002C17.2166 5.43336 18.0666 5.15002 18.8 5.15002C19.4666 5.15002 20 5.41669 20.4 5.95002C20.8 6.45002 21.0833 7.01669 21.25 7.65002C21.45 8.28336 21.55 8.78336 21.55 9.15002C21.55 9.65002 21.4833 10.2167 21.35 10.85C21.2166 11.4834 20.7666 12.0834 20 12.65C19.8666 12.7834 19.7333 12.85 19.6 12.85C19.3666 12.85 19.25 12.6834 19.25 12.35C19.25 12.1834 19.3 11.9834 19.4 11.75C19.5 11.5167 19.6666 11.3167 19.9 11.15C20.1666 10.95 20.3333 10.7167 20.4 10.45C20.4666 10.1834 20.5 9.93336 20.5 9.70002C20.5 9.50002 20.4833 9.31669 20.45 9.15002C20.45 8.95002 20.45 8.78336 20.45 8.65002C20.45 8.38336 20.3 8.01669 20 7.55002C19.7 7.05002 19.3 6.80002 18.8 6.80002C18.3 6.80002 17.7 7.00002 17 7.40002C16.3333 7.76669 15.75 8.23336 15.25 8.80002C14.75 9.36669 14.5 9.93336 14.5 10.5C14.5 10.8334 14.7 11.35 15.1 12.05C15.5333 12.75 16.0166 13.4334 16.55 14.1C16.9833 14.6 17.2833 15 17.45 15.3C17.65 15.6 17.9166 15.8167 18.25 15.95C18.6166 16.05 19.2833 16.1 20.25 16.1C21.9166 16.1 23.1833 15.6 24.05 14.6C24.9166 13.5667 25.6166 12.3334 26.15 10.9C26.35 10.2334 26.45 9.60002 26.45 9.00002C26.45 8.33336 26.35 7.71669 26.15 7.15002C25.9833 6.58336 25.7666 6.13336 25.5 5.80002C24.8333 4.90002 24.05 4.23336 23.15 3.80002C22.25 3.33336 21.0166 3.03336 19.45 2.90002C19.15 2.86669 18.85 2.85002 18.55 2.85002C18.2833 2.81669 18.0166 2.80002 17.75 2.80002C15.75 2.80002 14.15 3.10002 12.95 3.70002C11.7833 4.30002 10.7666 4.85002 9.89998 5.35002C8.39998 6.25002 7.19998 7.40002 6.29998 8.80002C5.39998 10.2 4.61664 11.6334 3.94998 13.1C3.74998 13.5667 3.53331 14.2167 3.29998 15.05C3.09998 15.8834 2.93331 16.75 2.79998 17.65C2.66664 18.55 2.59998 19.3667 2.59998 20.1C2.59998 22.7667 2.83331 24.9 3.29998 26.5C3.76664 28.1 4.78331 29.4834 6.34998 30.65C7.18331 31.25 8.24998 31.8667 9.54998 32.5C10.85 33.1334 12.2166 33.6667 13.65 34.1C15.1166 34.5667 16.4833 34.8 17.75 34.8C19.1166 34.8 20.1833 34.6167 20.95 34.25C21.7166 33.9167 22.5666 33.6 23.5 33.3C24.0666 33.1334 24.7833 32.8 25.65 32.3C26.5166 31.8 27.35 31.2667 28.15 30.7C28.9833 30.1334 29.5833 29.6834 29.95 29.35C30.1833 29.1167 30.4166 29 30.65 29C30.85 29 30.95 29.1 30.95 29.3C30.95 29.5334 30.8333 29.7667 30.6 30ZM43.1918 26.8C42.7584 27.5334 42.2084 28.3334 41.5418 29.2C40.8751 30.0334 40.1751 30.75 39.4418 31.35C38.7418 31.95 38.0751 32.25 37.4418 32.25C36.4084 32.25 35.5918 32.2 34.9918 32.1C34.4251 31.9667 33.9584 31.7834 33.5918 31.55C32.9584 31.1167 32.4418 30.55 32.0418 29.85C31.6418 29.15 31.4084 28.4334 31.3418 27.7C31.3084 27.5 31.2918 27.3 31.2918 27.1C31.2918 26.9 31.2918 26.7167 31.2918 26.55C31.2918 24.5834 31.6751 22.85 32.4418 21.35C33.2084 19.85 34.2918 18.95 35.6918 18.65C36.1251 18.5834 36.4584 18.7667 36.6918 19.2C36.9251 19.6 37.0418 20.15 37.0418 20.85C37.0418 21.9167 36.7584 23.0667 36.1918 24.3C35.9584 24.8 35.7084 25.2834 35.4418 25.75C35.2084 26.1834 35.0084 26.5334 34.8418 26.8C34.4084 27.4334 34.0751 27.8667 33.8418 28.1C33.6418 28.3 33.5418 28.5 33.5418 28.7C33.5418 29.2334 33.8751 29.75 34.5418 30.25C35.2084 30.75 36.2418 31 37.6418 31C38.1751 31 38.7251 30.7667 39.2918 30.3C39.8584 29.8334 40.4084 29.25 40.9418 28.55C41.5084 27.85 42.0084 27.15 42.4418 26.45C42.6418 26.1167 42.8251 25.95 42.9918 25.95C43.1918 25.95 43.2918 26.1 43.2918 26.4C43.2918 26.5334 43.2584 26.6667 43.1918 26.8ZM35.6918 20.5C35.5584 20.3 35.2751 20.35 34.8418 20.65C34.4418 20.9167 34.0751 21.55 33.7418 22.55C33.5084 23.2834 33.3918 24.1334 33.3918 25.1C33.3918 25.3667 33.3918 25.6334 33.3918 25.9C33.4251 26.1667 33.4584 26.4334 33.4918 26.7C34.0584 25.7334 34.4584 25.0167 34.6918 24.55C34.9584 24.05 35.1584 23.5334 35.2918 23C35.3584 22.7334 35.4584 22.4 35.5918 22C35.7584 21.6 35.8418 21.25 35.8418 20.95C35.8418 20.75 35.7918 20.6 35.6918 20.5ZM51.9238 30.2C52.0571 30.0667 52.2405 30 52.4738 30C52.7071 30 52.8238 30.1 52.8238 30.3C52.8238 30.5334 52.5571 30.9 52.0238 31.4C51.4905 31.9 50.9071 32.3 50.2738 32.6C49.6405 32.9 49.0405 33.1167 48.4738 33.25C48.2071 33.2834 47.8405 33.1834 47.3738 32.95C46.9405 32.75 46.6738 32.5334 46.5738 32.3C46.4405 32 46.3405 31.6667 46.2738 31.3C46.2071 30.9 46.1738 30.4834 46.1738 30.05C46.1738 29.0167 46.2905 27.95 46.5238 26.85C46.7571 25.75 46.9738 24.8 47.1738 24C46.7738 24.1334 46.3238 24.2 45.8238 24.2C45.3571 24.2 44.9405 24.2334 44.5738 24.3C44.3405 24.6334 44.1405 25.0167 43.9738 25.45C43.8071 25.85 43.5738 26.3 43.2738 26.8C42.7405 27.6667 42.1405 28.5334 41.4738 29.4C40.8405 30.2334 40.1905 30.9167 39.5238 31.45C38.8571 31.9834 38.2071 32.25 37.5738 32.25C37.1405 32.25 36.9238 32.1334 36.9238 31.9C36.9238 31.6667 37.2071 31.45 37.7738 31.25C38.5738 30.95 39.3905 30.3167 40.2238 29.35C41.0571 28.3834 41.8071 27.3834 42.4738 26.35C42.8071 25.85 43.0238 25.4 43.1238 25C43.2238 24.5667 43.2738 24.2334 43.2738 24C43.2738 24 43.1238 23.8334 42.8238 23.5C42.5571 23.1334 42.4238 22.7834 42.4238 22.45C42.4238 21.7167 42.6571 21.05 43.1238 20.45C43.6238 19.85 44.1405 19.6334 44.6738 19.8C45.0405 19.9 45.2738 20.0667 45.3738 20.3C45.5071 20.5334 45.5738 20.7834 45.5738 21.05C45.5738 21.35 45.5238 21.6667 45.4238 22C45.3238 22.3 45.2238 22.5667 45.1238 22.8C45.2238 22.9334 45.4405 23 45.7738 23C46.2738 23 46.8238 22.9 47.4238 22.7C47.8571 22.0667 48.2738 21.5667 48.6738 21.2C49.0738 20.8334 49.4405 20.6834 49.7738 20.75C50.0071 20.7834 50.2238 20.8667 50.4238 21C50.6238 21.1334 50.7238 21.3834 50.7238 21.75C50.7238 22.05 50.5738 22.5 50.2738 23.1C49.7738 24 49.3071 24.9834 48.8738 26.05C48.4405 27.0834 48.1071 28.0334 47.8738 28.9C47.6405 29.7334 47.5405 30.3167 47.5738 30.65C47.6405 31.0834 47.7571 31.3667 47.9238 31.5C48.1238 31.6334 48.3405 31.7 48.5738 31.7C48.7405 31.7 48.9071 31.6834 49.0738 31.65C49.2738 31.5834 49.4571 31.5334 49.6238 31.5C50.1238 31.3334 50.5405 31.15 50.8738 30.95C51.2071 30.75 51.5571 30.5 51.9238 30.2ZM44.4738 21.75C44.4738 21.45 44.3738 21.2334 44.1738 21.1C44.1405 21.0667 44.0905 21.05 44.0238 21.05C43.8571 21.05 43.7071 21.1667 43.5738 21.4C43.4405 21.6 43.3738 21.8 43.3738 22C43.3738 22.1667 43.3905 22.3667 43.4238 22.6C43.4905 22.8 43.6071 22.85 43.7738 22.75C43.9405 22.65 44.0905 22.5167 44.2238 22.35C44.3905 22.1834 44.4738 21.9834 44.4738 21.75ZM69.8726 29C69.9726 28.9 70.106 28.85 70.2726 28.85C70.506 28.85 70.6226 28.9667 70.6226 29.2C70.6226 29.3334 70.5393 29.5334 70.3726 29.8C70.2393 30.0667 69.9393 30.3834 69.4726 30.75C69.006 31.15 68.5226 31.5167 68.0226 31.85C67.556 32.1834 66.906 32.35 66.0726 32.35C65.1726 32.35 64.456 32.1834 63.9226 31.85C63.4226 31.5167 63.056 31.15 62.8226 30.75C62.6226 30.3167 62.4893 29.9834 62.4226 29.75C62.0226 30.05 61.606 30.45 61.1726 30.95C60.7726 31.4167 60.1893 31.85 59.4226 32.25C58.656 32.6167 57.556 32.8 56.1226 32.8C55.3226 32.8 54.5893 32.6167 53.9226 32.25C53.2893 31.85 52.9726 31 52.9726 29.7C52.9726 29.3334 52.9893 28.95 53.0226 28.55C53.0893 28.1167 53.1893 27.65 53.3226 27.15C53.7226 25.5834 54.1893 24.35 54.7226 23.45C55.256 22.55 56.056 21.8834 57.1226 21.45C57.7893 21.1834 58.606 20.9334 59.5726 20.7C60.5393 20.4667 61.3893 20.2667 62.1226 20.1C62.356 20.0334 62.556 19.8167 62.7226 19.45C62.9226 19.05 63.1393 18.6834 63.3726 18.35C63.506 18.1834 63.656 18.05 63.8226 17.95C63.9893 17.8167 64.1726 17.75 64.3726 17.75C64.5393 17.75 64.756 17.8334 65.0226 18C65.256 18.1667 65.406 18.4834 65.4726 18.95C65.5726 19.4167 65.6226 19.85 65.6226 20.25C65.5893 20.45 65.506 20.7 65.3726 21C65.2726 21.2667 65.1893 21.5667 65.1226 21.9C65.056 22.3334 64.8893 22.95 64.6226 23.75C64.356 24.55 64.2226 25.2167 64.2226 25.75C64.2226 26.2167 64.1893 26.8 64.1226 27.5C64.056 28.1667 64.056 28.6334 64.1226 28.9C64.4893 29.7 65.006 30.2334 65.6726 30.5C66.3393 30.7334 66.9226 30.8 67.4226 30.7C67.7893 30.6334 68.206 30.4167 68.6726 30.05C69.1393 29.6834 69.5393 29.3334 69.8726 29ZM61.7726 23.3C61.706 23.0334 61.5393 22.75 61.2726 22.45C61.0393 22.15 60.7393 22 60.3726 22C60.306 22 60.1726 22.0334 59.9726 22.1C59.406 22.3 58.806 22.6834 58.1726 23.25C57.5393 23.7834 56.9893 24.4834 56.5226 25.35C56.056 26.2167 55.7893 27.2334 55.7226 28.4C55.7226 28.7334 55.8226 29.1667 56.0226 29.7C56.256 30.2334 56.556 30.6834 56.9226 31.05C57.2893 31.4167 57.656 31.5167 58.0226 31.35C58.8226 31.0167 59.4893 30.55 60.0226 29.95C60.5893 29.3167 61.056 28.55 61.4226 27.65C61.5893 27.2167 61.706 26.7667 61.7726 26.3C61.8726 25.8 61.9226 25.3334 61.9226 24.9C61.9226 24.5 61.906 24.1667 61.8726 23.9C61.8393 23.6 61.806 23.4 61.7726 23.3ZM89.2797 29.5C88.8463 29.9334 88.463 30.3667 88.1297 30.8C87.7963 31.2334 87.063 31.7334 85.9297 32.3C85.7963 32.5 85.4963 32.8 85.0297 33.2C84.5963 33.6 83.7297 33.8334 82.4297 33.9C81.563 33.9334 80.863 33.7167 80.3297 33.25C79.8297 32.8167 79.4463 32.2834 79.1797 31.65C78.913 31.0167 78.6797 30.4334 78.4797 29.9C78.4463 29.9334 78.2963 30.0667 78.0297 30.3C77.763 30.5334 77.4963 30.7667 77.2297 31C76.9297 31.2334 76.7463 31.3834 76.6797 31.45C76.6463 31.4834 76.5797 31.5 76.4797 31.5C76.313 31.5 76.1797 31.4167 76.0797 31.25C75.9463 31.05 75.9463 30.8834 76.0797 30.75C76.713 30.1167 77.1963 29.6334 77.5297 29.3C77.863 28.9334 78.163 28.5834 78.4297 28.25C78.6963 27.9167 79.013 27.5 79.3797 27C79.9463 26.1334 80.5463 25.3667 81.1797 24.7C81.8463 24 82.263 23.4834 82.4297 23.15C82.463 23.1167 82.4797 23.05 82.4797 22.95C82.4797 22.85 82.4297 22.7667 82.3297 22.7C82.263 22.6334 82.213 22.55 82.1797 22.45C82.0463 21.9167 81.9797 21.4167 81.9797 20.95C81.9797 20.2167 82.263 19.35 82.8297 18.35C83.063 18.1834 83.3797 18.05 83.7797 17.95C84.1797 17.8167 84.4963 17.8 84.7297 17.9C84.9963 18.0334 85.163 18.1834 85.2297 18.35C85.3297 18.5167 85.413 18.7334 85.4797 19C85.4797 19.0334 85.4797 19.0667 85.4797 19.1C85.513 19.1334 85.5297 19.1834 85.5297 19.25C85.5297 19.45 85.4963 19.6667 85.4297 19.9C85.363 20.1334 85.2797 20.3834 85.1797 20.65C85.1797 20.7834 85.013 21.0334 84.6797 21.4C84.3797 21.7667 84.2797 22 84.3797 22.1C84.5797 22.5334 84.913 23.1 85.3797 23.8C85.9463 24.6 86.3297 25.3334 86.5297 26C86.763 26.6667 86.8797 27.2667 86.8797 27.8C86.8797 28.4334 86.7797 28.9834 86.5797 29.45C86.413 29.9167 86.2797 30.3167 86.1797 30.65C86.4797 30.6834 86.8297 30.5334 87.2297 30.2C87.6297 29.8334 88.013 29.4334 88.3797 29C88.7797 28.5334 89.0797 28.2 89.2797 28C89.4797 27.8 89.6297 27.7 89.7297 27.7C89.8963 27.7 89.8963 27.95 89.7297 28.45C89.5963 28.95 89.4463 29.3 89.2797 29.5ZM84.4297 19.9C84.4297 19.7667 84.413 19.6167 84.3797 19.45C84.3463 19.2834 84.2463 19.1834 84.0797 19.15H84.0297C83.863 19.15 83.7297 19.2334 83.6297 19.4C83.5297 19.5334 83.4463 19.6667 83.3797 19.8C83.2797 20.0667 83.1797 20.3 83.0797 20.5C83.013 20.6667 83.0463 20.8334 83.1797 21C83.313 21.0667 83.5463 20.9334 83.8797 20.6C84.2463 20.2334 84.4297 20 84.4297 19.9ZM84.5297 27.9C84.5297 27.4 84.4297 26.8667 84.2297 26.3C84.063 25.7 83.863 25.1667 83.6297 24.7C83.4297 24.2334 83.2797 23.9334 83.1797 23.8C83.1797 23.8 82.9797 24.05 82.5797 24.55C82.1797 25.0167 81.7463 25.5334 81.2797 26.1C80.9797 26.4334 80.6797 26.8667 80.3797 27.4C80.0797 27.9334 79.8963 28.4 79.8297 28.8C79.8297 28.8 79.9797 29 80.2797 29.4C80.5797 29.7667 80.9463 30.1167 81.3797 30.45C81.8463 30.7834 82.2963 30.9 82.7297 30.8C83.3963 30.6334 83.863 30.25 84.1297 29.65C84.3963 29.0167 84.5297 28.4334 84.5297 27.9ZM82.8297 31.8H82.3797C82.2463 31.8 82.0963 31.8 81.9297 31.8C81.763 31.7667 81.5963 31.7334 81.4297 31.7C81.263 31.6334 81.013 31.5 80.6797 31.3C80.3463 31.1 80.1797 31 80.1797 31C80.1797 31 80.163 31.0334 80.1297 31.1C80.1297 31.1667 80.1297 31.25 80.1297 31.35C80.1297 31.4834 80.1463 31.6334 80.1797 31.8C80.2463 31.9667 80.363 32.1334 80.5297 32.3C80.7963 32.5 81.0297 32.6667 81.2297 32.8C81.4297 32.9 81.6963 32.9 82.0297 32.8C82.263 32.7334 82.4463 32.55 82.5797 32.25C82.7463 31.95 82.8297 31.8 82.8297 31.8ZM99.5254 23.5C99.5254 24.2 99.3754 25.1167 99.0754 26.25C98.7754 27.3834 98.3754 28.45 97.8754 29.45C97.4087 30.4834 96.8754 31.25 96.2754 31.75C95.7087 32.2167 95.1587 32.55 94.6254 32.75C94.092 32.9167 93.6587 33.0834 93.3254 33.25C93.192 33.2834 93.042 33.3167 92.8754 33.35C92.742 33.4167 92.592 33.45 92.4254 33.45C91.7587 33.45 91.242 33.2667 90.8754 32.9C90.742 32.7667 90.5254 32.6334 90.2254 32.5C89.9587 32.3667 89.7087 32.1334 89.4754 31.8C89.242 31.4667 89.1254 30.9167 89.1254 30.15C89.1254 29.35 89.2254 28.5834 89.4254 27.85C88.8254 27.15 88.5254 26.3834 88.5254 25.55C88.5254 25.05 88.642 24.5667 88.8754 24.1C89.5087 22.9 90.3087 21.9667 91.2754 21.3C92.242 20.6334 93.1587 20.1667 94.0254 19.9C94.9254 19.6334 95.542 19.5 95.8754 19.5C97.1087 19.5 98.0254 19.9 98.6254 20.7C99.2254 21.5 99.5254 22.4334 99.5254 23.5ZM97.4754 23.75C97.4754 22.9834 97.2087 22.35 96.6754 21.85C96.1754 21.35 95.542 21.1 94.7754 21.1C94.142 21.1 93.492 21.3 92.8254 21.7C92.192 22.0667 91.642 22.5334 91.1754 23.1C90.7087 23.6667 90.4087 24.2167 90.2754 24.75C90.242 24.95 90.2087 25.1334 90.1754 25.3C90.1754 25.4667 90.1754 25.6334 90.1754 25.8C90.542 25 90.9254 24.3334 91.3254 23.8C91.7587 23.2667 92.0754 22.9334 92.2754 22.8C92.442 22.6667 92.6587 22.6 92.9254 22.6C93.292 22.6 93.4754 22.7 93.4754 22.9C93.4754 23.0334 93.292 23.2834 92.9254 23.65C92.592 23.9834 92.2087 24.4334 91.7754 25C91.342 25.5334 90.9754 26.2 90.6754 27C90.942 27.3334 91.292 27.5834 91.7254 27.75C92.192 27.8834 92.642 27.95 93.0754 27.95C93.542 27.95 93.9754 27.8667 94.3754 27.7C94.8087 27.5 95.092 27.2334 95.2254 26.9C95.2587 26.8 95.2754 26.7167 95.2754 26.65C95.3087 26.55 95.3254 26.4667 95.3254 26.4C95.3254 26.0667 95.1754 25.8667 94.8754 25.8C94.6087 25.7 94.342 25.6667 94.0754 25.7H93.9754C93.6087 25.7 93.4254 25.6167 93.4254 25.45C93.4254 25.35 93.4587 25.25 93.5254 25.15C93.6254 25.05 93.7087 24.9667 93.7754 24.9C93.9754 24.7 94.192 24.6 94.4254 24.6C94.7587 24.6 95.1254 24.8167 95.5254 25.25C95.892 25.75 96.0754 26.2334 96.0754 26.7C96.0754 27.3 95.7754 27.7667 95.1754 28.1C94.6087 28.4334 93.9754 28.6667 93.2754 28.8C92.5754 28.9334 92.042 29 91.6754 29C91.142 29 90.7087 28.8834 90.3754 28.65C90.342 28.7167 90.3254 28.8667 90.3254 29.1C90.3254 30.0334 90.5754 30.6667 91.0754 31C91.5754 31.3 91.992 31.5334 92.3254 31.7C92.5254 31.7667 92.692 31.8 92.8254 31.8C93.292 31.8 93.7754 31.6 94.2754 31.2C94.8087 30.8 95.2754 30.25 95.6754 29.55C95.9754 29.0167 96.2587 28.3834 96.5254 27.65C96.792 26.9167 97.0087 26.2 97.1754 25.5C97.3754 24.7667 97.4754 24.1834 97.4754 23.75ZM112.335 25.9C111.768 26.4 111.285 26.7834 110.885 27.05C110.518 27.2834 109.968 27.4667 109.235 27.6C108.935 28.3667 108.535 29.25 108.035 30.25C107.568 31.2167 107.051 32.05 106.485 32.75C105.951 33.45 105.385 33.8 104.785 33.8C103.651 33.8 102.801 33.55 102.235 33.05C101.701 32.5834 101.351 31.9167 101.185 31.05C101.051 30.15 100.985 29.1334 100.985 28C100.985 26.8334 101.085 25.4 101.285 23.7C101.485 22 101.785 20.1667 102.185 18.2C102.618 16.2334 103.151 14.25 103.785 12.25C104.385 10.35 105.035 8.50002 105.735 6.70002C106.435 4.90002 107.451 3.33336 108.785 2.00002C109.051 1.63336 109.368 1.45002 109.735 1.45002C110.068 1.45002 110.351 1.58336 110.585 1.85002C110.818 2.08336 110.918 2.36669 110.885 2.70002C110.885 2.70002 110.868 3.11669 110.835 3.95002C110.835 4.78336 110.785 5.80002 110.685 7.00002C110.585 8.16669 110.435 9.28336 110.235 10.35C109.901 12.1834 109.335 14.1 108.535 16.1C107.735 18.1 106.935 19.9 106.135 21.5C105.735 22.3 105.268 23.1167 104.735 23.95C104.235 24.75 103.801 25.4334 103.435 26C103.068 26.5667 102.885 26.9 102.885 27C102.851 27.1667 102.818 27.35 102.785 27.55C102.785 27.75 102.785 27.95 102.785 28.15C102.785 29.0834 102.951 30 103.285 30.9C103.651 31.8 104.118 32.25 104.685 32.25C105.051 32.25 105.435 32 105.835 31.5C106.268 30.9667 106.685 30.35 107.085 29.65C107.485 28.9167 107.818 28.25 108.085 27.65C107.185 27.1834 106.735 26.4334 106.735 25.4C106.735 25.1 106.785 24.8 106.885 24.5C107.118 23.7 107.435 23.1167 107.835 22.75C108.235 22.3834 108.635 22.2 109.035 22.2C109.401 22.2 109.718 22.35 109.985 22.65C110.251 22.9167 110.385 23.2834 110.385 23.75C110.385 24.1167 110.318 24.45 110.185 24.75C110.151 24.9167 110.118 25.0667 110.085 25.2C110.085 25.3 110.001 25.5334 109.835 25.9C110.401 25.7334 110.901 25.4834 111.335 25.15C111.768 24.7834 112.068 24.5834 112.235 24.55C112.335 24.5167 112.468 24.5 112.635 24.5C112.935 24.5 113.085 24.6 113.085 24.8C113.085 25.0667 112.835 25.4334 112.335 25.9ZM109.235 4.80002C108.935 4.73336 108.435 5.48336 107.735 7.05002C107.035 8.58336 106.301 10.65 105.535 13.25C105.301 14.05 105.035 15.0667 104.735 16.3C104.435 17.5334 104.151 18.8167 103.885 20.15C103.618 21.45 103.401 22.6334 103.235 23.7C104.301 21.5334 105.268 19.5834 106.135 17.85C107.035 16.1167 107.718 14.5 108.185 13C108.551 11.8 108.851 10.5167 109.085 9.15002C109.351 7.78336 109.485 6.70002 109.485 5.90002C109.485 5.23336 109.401 4.86669 109.235 4.80002ZM124.238 30.2C124.372 30.0667 124.555 30 124.788 30C125.022 30 125.138 30.1 125.138 30.3C125.138 30.5334 124.872 30.9 124.338 31.4C123.805 31.9 123.222 32.3 122.588 32.6C121.955 32.9 121.355 33.1167 120.788 33.25C120.522 33.2834 120.155 33.1834 119.688 32.95C119.255 32.75 118.988 32.5334 118.888 32.3C118.755 32 118.655 31.6667 118.588 31.3C118.522 30.9 118.488 30.4834 118.488 30.05C118.488 29.0167 118.605 27.95 118.838 26.85C119.072 25.75 119.288 24.8 119.488 24C119.088 24.1334 118.638 24.2 118.138 24.2C117.672 24.2 117.255 24.2334 116.888 24.3C116.655 24.6334 116.455 25.0167 116.288 25.45C116.122 25.85 115.888 26.3 115.588 26.8C115.055 27.6667 114.455 28.5334 113.788 29.4C113.155 30.2334 112.505 30.9167 111.838 31.45C111.172 31.9834 110.522 32.25 109.888 32.25C109.455 32.25 109.238 32.1334 109.238 31.9C109.238 31.6667 109.522 31.45 110.088 31.25C110.888 30.95 111.705 30.3167 112.538 29.35C113.372 28.3834 114.122 27.3834 114.788 26.35C115.122 25.85 115.338 25.4 115.438 25C115.538 24.5667 115.588 24.2334 115.588 24C115.588 24 115.438 23.8334 115.138 23.5C114.872 23.1334 114.738 22.7834 114.738 22.45C114.738 21.7167 114.972 21.05 115.438 20.45C115.938 19.85 116.455 19.6334 116.988 19.8C117.355 19.9 117.588 20.0667 117.688 20.3C117.822 20.5334 117.888 20.7834 117.888 21.05C117.888 21.35 117.838 21.6667 117.738 22C117.638 22.3 117.538 22.5667 117.438 22.8C117.538 22.9334 117.755 23 118.088 23C118.588 23 119.138 22.9 119.738 22.7C120.172 22.0667 120.588 21.5667 120.988 21.2C121.388 20.8334 121.755 20.6834 122.088 20.75C122.322 20.7834 122.538 20.8667 122.738 21C122.938 21.1334 123.038 21.3834 123.038 21.75C123.038 22.05 122.888 22.5 122.588 23.1C122.088 24 121.622 24.9834 121.188 26.05C120.755 27.0834 120.422 28.0334 120.188 28.9C119.955 29.7334 119.855 30.3167 119.888 30.65C119.955 31.0834 120.072 31.3667 120.238 31.5C120.438 31.6334 120.655 31.7 120.888 31.7C121.055 31.7 121.222 31.6834 121.388 31.65C121.588 31.5834 121.772 31.5334 121.938 31.5C122.438 31.3334 122.855 31.15 123.188 30.95C123.522 30.75 123.872 30.5 124.238 30.2ZM116.788 21.75C116.788 21.45 116.688 21.2334 116.488 21.1C116.455 21.0667 116.405 21.05 116.338 21.05C116.172 21.05 116.022 21.1667 115.888 21.4C115.755 21.6 115.688 21.8 115.688 22C115.688 22.1667 115.705 22.3667 115.738 22.6C115.805 22.8 115.922 22.85 116.088 22.75C116.255 22.65 116.405 22.5167 116.538 22.35C116.705 22.1834 116.788 21.9834 116.788 21.75ZM137.137 26.8C136.704 27.5334 136.154 28.3334 135.487 29.2C134.82 30.0334 134.12 30.75 133.387 31.35C132.687 31.95 132.02 32.25 131.387 32.25C130.354 32.25 129.537 32.2 128.937 32.1C128.37 31.9667 127.904 31.7834 127.537 31.55C126.904 31.1167 126.387 30.55 125.987 29.85C125.587 29.15 125.354 28.4334 125.287 27.7C125.254 27.5 125.237 27.3 125.237 27.1C125.237 26.9 125.237 26.7167 125.237 26.55C125.237 24.5834 125.62 22.85 126.387 21.35C127.154 19.85 128.237 18.95 129.637 18.65C130.07 18.5834 130.404 18.7667 130.637 19.2C130.87 19.6 130.987 20.15 130.987 20.85C130.987 21.9167 130.704 23.0667 130.137 24.3C129.904 24.8 129.654 25.2834 129.387 25.75C129.154 26.1834 128.954 26.5334 128.787 26.8C128.354 27.4334 128.02 27.8667 127.787 28.1C127.587 28.3 127.487 28.5 127.487 28.7C127.487 29.2334 127.82 29.75 128.487 30.25C129.154 30.75 130.187 31 131.587 31C132.12 31 132.67 30.7667 133.237 30.3C133.804 29.8334 134.354 29.25 134.887 28.55C135.454 27.85 135.954 27.15 136.387 26.45C136.587 26.1167 136.77 25.95 136.937 25.95C137.137 25.95 137.237 26.1 137.237 26.4C137.237 26.5334 137.204 26.6667 137.137 26.8ZM129.637 20.5C129.504 20.3 129.22 20.35 128.787 20.65C128.387 20.9167 128.02 21.55 127.687 22.55C127.454 23.2834 127.337 24.1334 127.337 25.1C127.337 25.3667 127.337 25.6334 127.337 25.9C127.37 26.1667 127.404 26.4334 127.437 26.7C128.004 25.7334 128.404 25.0167 128.637 24.55C128.904 24.05 129.104 23.5334 129.237 23C129.304 22.7334 129.404 22.4 129.537 22C129.704 21.6 129.787 21.25 129.787 20.95C129.787 20.75 129.737 20.6 129.637 20.5ZM152.378 29.6C151.545 30.6667 150.761 31.4167 150.028 31.85C149.295 32.2834 148.595 32.55 147.928 32.65C147.261 32.7167 146.561 32.75 145.828 32.75C144.695 32.75 143.811 32.3834 143.178 31.65C142.578 30.8834 142.245 30 142.178 29C142.145 28.3334 142.178 27.5334 142.278 26.6C142.411 25.6667 142.745 24.65 143.278 23.55C143.778 22.5167 144.311 21.7667 144.878 21.3C145.445 20.8 145.995 20.45 146.528 20.25C147.061 20.05 147.495 19.8834 147.828 19.75C148.095 19.65 148.378 19.6 148.678 19.6C149.345 19.6 149.878 19.7667 150.278 20.1C150.445 20.2334 150.545 20.4167 150.578 20.65C150.645 20.85 150.678 21.0667 150.678 21.3C150.678 21.4334 150.661 21.5834 150.628 21.75C150.628 21.8834 150.611 22.0167 150.578 22.15C150.511 22.5834 150.311 23.15 149.978 23.85C149.678 24.5167 149.395 25.1667 149.128 25.8C148.928 26 148.711 26.1 148.478 26.1C148.211 26.1 148.145 25.95 148.278 25.65C148.445 24.9834 148.661 24.4334 148.928 24C149.228 23.5334 149.378 23.1334 149.378 22.8C149.411 22.7 149.428 22.6 149.428 22.5C149.428 22.4 149.428 22.3167 149.428 22.25C149.428 21.7834 149.228 21.4667 148.828 21.3C148.628 21.2334 148.478 21.2 148.378 21.2C147.945 21.2 147.445 21.4 146.878 21.8C146.311 22.2 145.845 22.75 145.478 23.45C145.045 24.2167 144.728 25.0834 144.528 26.05C144.361 27.0167 144.278 27.8334 144.278 28.5C144.278 29.3 144.561 29.9667 145.128 30.5C145.728 31 146.445 31.2167 147.278 31.15C148.211 31.05 149.111 30.8 149.978 30.4C150.878 30 151.645 29.3834 152.278 28.55C152.378 28.4834 152.478 28.45 152.578 28.45C152.678 28.45 152.728 28.5167 152.728 28.65C152.728 28.7834 152.678 28.9667 152.578 29.2C152.511 29.4 152.445 29.5334 152.378 29.6ZM168.457 29C168.557 28.9 168.69 28.85 168.857 28.85C169.09 28.85 169.207 28.9667 169.207 29.2C169.207 29.3334 169.123 29.5334 168.957 29.8C168.823 30.0667 168.523 30.3834 168.057 30.75C167.59 31.15 167.107 31.5167 166.607 31.85C166.14 32.1834 165.49 32.35 164.657 32.35C163.757 32.35 163.04 32.1834 162.507 31.85C162.007 31.5167 161.64 31.15 161.407 30.75C161.207 30.3167 161.073 29.9834 161.007 29.75C160.607 30.05 160.19 30.45 159.757 30.95C159.357 31.4167 158.773 31.85 158.007 32.25C157.24 32.6167 156.14 32.8 154.707 32.8C153.907 32.8 153.173 32.6167 152.507 32.25C151.873 31.85 151.557 31 151.557 29.7C151.557 29.3334 151.573 28.95 151.607 28.55C151.673 28.1167 151.773 27.65 151.907 27.15C152.307 25.5834 152.773 24.35 153.307 23.45C153.84 22.55 154.64 21.8834 155.707 21.45C156.373 21.1834 157.19 20.9334 158.157 20.7C159.123 20.4667 159.973 20.2667 160.707 20.1C160.94 20.0334 161.14 19.8167 161.307 19.45C161.507 19.05 161.723 18.6834 161.957 18.35C162.09 18.1834 162.24 18.05 162.407 17.95C162.573 17.8167 162.757 17.75 162.957 17.75C163.123 17.75 163.34 17.8334 163.607 18C163.84 18.1667 163.99 18.4834 164.057 18.95C164.157 19.4167 164.207 19.85 164.207 20.25C164.173 20.45 164.09 20.7 163.957 21C163.857 21.2667 163.773 21.5667 163.707 21.9C163.64 22.3334 163.473 22.95 163.207 23.75C162.94 24.55 162.807 25.2167 162.807 25.75C162.807 26.2167 162.773 26.8 162.707 27.5C162.64 28.1667 162.64 28.6334 162.707 28.9C163.073 29.7 163.59 30.2334 164.257 30.5C164.923 30.7334 165.507 30.8 166.007 30.7C166.373 30.6334 166.79 30.4167 167.257 30.05C167.723 29.6834 168.123 29.3334 168.457 29ZM160.357 23.3C160.29 23.0334 160.123 22.75 159.857 22.45C159.623 22.15 159.323 22 158.957 22C158.89 22 158.757 22.0334 158.557 22.1C157.99 22.3 157.39 22.6834 156.757 23.25C156.123 23.7834 155.573 24.4834 155.107 25.35C154.64 26.2167 154.373 27.2334 154.307 28.4C154.307 28.7334 154.407 29.1667 154.607 29.7C154.84 30.2334 155.14 30.6834 155.507 31.05C155.873 31.4167 156.24 31.5167 156.607 31.35C157.407 31.0167 158.073 30.55 158.607 29.95C159.173 29.3167 159.64 28.55 160.007 27.65C160.173 27.2167 160.29 26.7667 160.357 26.3C160.457 25.8 160.507 25.3334 160.507 24.9C160.507 24.5 160.49 24.1667 160.457 23.9C160.423 23.6 160.39 23.4 160.357 23.3ZM179.805 30.2C179.938 30.0667 180.121 30 180.355 30C180.588 30 180.705 30.1 180.705 30.3C180.705 30.5334 180.438 30.9 179.905 31.4C179.371 31.9 178.788 32.3 178.155 32.6C177.521 32.9 176.921 33.1167 176.355 33.25C176.088 33.2834 175.721 33.1834 175.255 32.95C174.821 32.75 174.555 32.5334 174.455 32.3C174.321 32 174.221 31.6667 174.155 31.3C174.088 30.9 174.055 30.4834 174.055 30.05C174.055 29.0167 174.171 27.95 174.405 26.85C174.638 25.75 174.855 24.8 175.055 24C174.655 24.1334 174.205 24.2 173.705 24.2C173.238 24.2 172.821 24.2334 172.455 24.3C172.221 24.6334 172.021 25.0167 171.855 25.45C171.688 25.85 171.455 26.3 171.155 26.8C170.621 27.6667 170.021 28.5334 169.355 29.4C168.721 30.2334 168.071 30.9167 167.405 31.45C166.738 31.9834 166.088 32.25 165.455 32.25C165.021 32.25 164.805 32.1334 164.805 31.9C164.805 31.6667 165.088 31.45 165.655 31.25C166.455 30.95 167.271 30.3167 168.105 29.35C168.938 28.3834 169.688 27.3834 170.355 26.35C170.688 25.85 170.905 25.4 171.005 25C171.105 24.5667 171.155 24.2334 171.155 24C171.155 24 171.005 23.8334 170.705 23.5C170.438 23.1334 170.305 22.7834 170.305 22.45C170.305 21.7167 170.538 21.05 171.005 20.45C171.505 19.85 172.021 19.6334 172.555 19.8C172.921 19.9 173.155 20.0667 173.255 20.3C173.388 20.5334 173.455 20.7834 173.455 21.05C173.455 21.35 173.405 21.6667 173.305 22C173.205 22.3 173.105 22.5667 173.005 22.8C173.105 22.9334 173.321 23 173.655 23C174.155 23 174.705 22.9 175.305 22.7C175.738 22.0667 176.155 21.5667 176.555 21.2C176.955 20.8334 177.321 20.6834 177.655 20.75C177.888 20.7834 178.105 20.8667 178.305 21C178.505 21.1334 178.605 21.3834 178.605 21.75C178.605 22.05 178.455 22.5 178.155 23.1C177.655 24 177.188 24.9834 176.755 26.05C176.321 27.0834 175.988 28.0334 175.755 28.9C175.521 29.7334 175.421 30.3167 175.455 30.65C175.521 31.0834 175.638 31.3667 175.805 31.5C176.005 31.6334 176.221 31.7 176.455 31.7C176.621 31.7 176.788 31.6834 176.955 31.65C177.155 31.5834 177.338 31.5334 177.505 31.5C178.005 31.3334 178.421 31.15 178.755 30.95C179.088 30.75 179.438 30.5 179.805 30.2ZM172.355 21.75C172.355 21.45 172.255 21.2334 172.055 21.1C172.021 21.0667 171.971 21.05 171.905 21.05C171.738 21.05 171.588 21.1667 171.455 21.4C171.321 21.6 171.255 21.8 171.255 22C171.255 22.1667 171.271 22.3667 171.305 22.6C171.371 22.8 171.488 22.85 171.655 22.75C171.821 22.65 171.971 22.5167 172.105 22.35C172.271 22.1834 172.355 21.9834 172.355 21.75ZM194.553 13.15C194.553 13.15 194.553 13.2667 194.553 13.5C194.587 13.7334 194.52 14.0167 194.353 14.35C194.187 14.6834 193.82 15.0167 193.253 15.35C193.053 15.4834 192.687 15.5834 192.153 15.65C191.62 15.7167 191.02 15.7667 190.353 15.8C189.987 16.7667 189.587 17.75 189.153 18.75C188.72 19.7167 188.27 20.6334 187.803 21.5C187.103 22.8334 186.503 23.8167 186.003 24.45C185.537 25.0834 185.17 25.5667 184.903 25.9C184.637 26.2 184.453 26.5667 184.353 27C184.32 27.2 184.287 27.3834 184.253 27.55C184.253 27.7167 184.253 27.8834 184.253 28.05C184.253 29.2834 184.603 30.1834 185.303 30.75C186.037 31.3167 186.737 31.6 187.403 31.6C188.17 31.6 188.937 31.3334 189.703 30.8C190.47 30.2334 191.103 29.7167 191.603 29.25C192.003 28.9167 192.303 28.75 192.503 28.75C192.637 28.75 192.703 28.8167 192.703 28.95C192.703 29.1834 192.52 29.55 192.153 30.05C191.953 30.3167 191.62 30.6834 191.153 31.15C190.687 31.6167 190.103 32.05 189.403 32.45C188.703 32.8167 187.92 33 187.053 33C185.32 33 184.153 32.6 183.553 31.8C182.987 31 182.703 29.6667 182.703 27.8C182.703 26.3334 182.853 24.5334 183.153 22.4C183.453 20.2334 183.92 17.95 184.553 15.55C184.387 15.55 184.22 15.55 184.053 15.55C183.887 15.5167 183.737 15.5 183.603 15.5C183.17 15.5 182.837 15.5667 182.603 15.7C182.403 15.8 182.237 15.85 182.103 15.85C181.77 15.85 181.603 15.6 181.603 15.1C181.603 14.5334 181.753 14.1 182.053 13.8C182.287 13.5667 182.687 13.45 183.253 13.45C183.687 13.45 184.27 13.5334 185.003 13.7C185.07 13.5 185.137 13.3167 185.203 13.15C185.27 12.9834 185.32 12.8167 185.353 12.65C185.42 12.3167 185.487 12.05 185.553 11.85C185.62 11.65 185.703 11.4 185.803 11.1C186.37 9.40002 186.987 7.76669 187.653 6.20002C188.32 4.63336 189.287 3.23336 190.553 2.00002C190.787 1.63336 191.103 1.45002 191.503 1.45002C191.803 1.45002 192.07 1.58336 192.303 1.85002C192.537 2.08336 192.637 2.36669 192.603 2.70002C192.603 2.70002 192.587 3.11669 192.553 3.95002C192.52 4.78336 192.453 5.80002 192.353 7.00002C192.253 8.16669 192.103 9.28336 191.903 10.35C191.803 10.9834 191.653 11.6667 191.453 12.4C191.287 13.1 191.07 13.8167 190.803 14.55C191.003 14.5834 191.187 14.6167 191.353 14.65C191.553 14.65 191.737 14.65 191.903 14.65C192.403 14.65 192.787 14.5834 193.053 14.45C193.353 14.2834 193.52 14.1167 193.553 13.95C193.62 13.7834 193.653 13.7 193.653 13.7C193.653 13.0334 193.82 12.7 194.153 12.7C194.32 12.7 194.453 12.85 194.553 13.15ZM191.003 4.80002C190.803 4.76669 190.487 5.15002 190.053 5.95002C189.62 6.75002 189.153 7.80002 188.653 9.10002C188.153 10.4 187.67 11.7834 187.203 13.25C187.17 13.3834 187.137 13.5167 187.103 13.65C187.07 13.75 187.037 13.8667 187.003 14C187.237 14.0667 187.47 14.1167 187.703 14.15C187.937 14.1834 188.187 14.2334 188.453 14.3C188.587 14.3334 188.737 14.35 188.903 14.35C189.07 14.35 189.22 14.3834 189.353 14.45C189.487 14.0834 189.603 13.7667 189.703 13.5C189.803 13.2 189.903 12.9334 190.003 12.7C190.37 11.4667 190.67 10.2 190.903 8.90002C191.137 7.60002 191.253 6.58336 191.253 5.85002C191.253 5.25002 191.17 4.90002 191.003 4.80002ZM188.803 15.8H187.903C187.67 15.8 187.437 15.8 187.203 15.8C187.003 15.8 186.803 15.7834 186.603 15.75C186.303 17.0167 186.003 18.3834 185.703 19.85C185.437 21.2834 185.22 22.5667 185.053 23.7C185.453 23.2334 185.87 22.5667 186.303 21.7C186.737 20.8334 187.17 19.8834 187.603 18.85C188.037 17.7834 188.437 16.7667 188.803 15.8ZM202.846 23.5C202.846 24.2 202.696 25.1167 202.396 26.25C202.096 27.3834 201.696 28.45 201.196 29.45C200.729 30.4834 200.196 31.25 199.596 31.75C199.029 32.2167 198.479 32.55 197.946 32.75C197.412 32.9167 196.979 33.0834 196.646 33.25C196.512 33.2834 196.362 33.3167 196.196 33.35C196.062 33.4167 195.912 33.45 195.746 33.45C195.079 33.45 194.562 33.2667 194.196 32.9C194.062 32.7667 193.846 32.6334 193.546 32.5C193.279 32.3667 193.029 32.1334 192.796 31.8C192.562 31.4667 192.446 30.9167 192.446 30.15C192.446 29.35 192.546 28.5834 192.746 27.85C192.146 27.15 191.846 26.3834 191.846 25.55C191.846 25.05 191.962 24.5667 192.196 24.1C192.829 22.9 193.629 21.9667 194.596 21.3C195.562 20.6334 196.479 20.1667 197.346 19.9C198.246 19.6334 198.862 19.5 199.196 19.5C200.429 19.5 201.346 19.9 201.946 20.7C202.546 21.5 202.846 22.4334 202.846 23.5ZM200.796 23.75C200.796 22.9834 200.529 22.35 199.996 21.85C199.496 21.35 198.862 21.1 198.096 21.1C197.462 21.1 196.812 21.3 196.146 21.7C195.512 22.0667 194.962 22.5334 194.496 23.1C194.029 23.6667 193.729 24.2167 193.596 24.75C193.562 24.95 193.529 25.1334 193.496 25.3C193.496 25.4667 193.496 25.6334 193.496 25.8C193.862 25 194.246 24.3334 194.646 23.8C195.079 23.2667 195.396 22.9334 195.596 22.8C195.762 22.6667 195.979 22.6 196.246 22.6C196.612 22.6 196.796 22.7 196.796 22.9C196.796 23.0334 196.612 23.2834 196.246 23.65C195.912 23.9834 195.529 24.4334 195.096 25C194.662 25.5334 194.296 26.2 193.996 27C194.262 27.3334 194.612 27.5834 195.046 27.75C195.512 27.8834 195.962 27.95 196.396 27.95C196.862 27.95 197.296 27.8667 197.696 27.7C198.129 27.5 198.412 27.2334 198.546 26.9C198.579 26.8 198.596 26.7167 198.596 26.65C198.629 26.55 198.646 26.4667 198.646 26.4C198.646 26.0667 198.496 25.8667 198.196 25.8C197.929 25.7 197.662 25.6667 197.396 25.7H197.296C196.929 25.7 196.746 25.6167 196.746 25.45C196.746 25.35 196.779 25.25 196.846 25.15C196.946 25.05 197.029 24.9667 197.096 24.9C197.296 24.7 197.512 24.6 197.746 24.6C198.079 24.6 198.446 24.8167 198.846 25.25C199.212 25.75 199.396 26.2334 199.396 26.7C199.396 27.3 199.096 27.7667 198.496 28.1C197.929 28.4334 197.296 28.6667 196.596 28.8C195.896 28.9334 195.362 29 194.996 29C194.462 29 194.029 28.8834 193.696 28.65C193.662 28.7167 193.646 28.8667 193.646 29.1C193.646 30.0334 193.896 30.6667 194.396 31C194.896 31.3 195.312 31.5334 195.646 31.7C195.846 31.7667 196.012 31.8 196.146 31.8C196.612 31.8 197.096 31.6 197.596 31.2C198.129 30.8 198.596 30.25 198.996 29.55C199.296 29.0167 199.579 28.3834 199.846 27.65C200.112 26.9167 200.329 26.2 200.496 25.5C200.696 24.7667 200.796 24.1834 200.796 23.75ZM198.696 16.35C198.696 16.1167 198.979 15.7 199.546 15.1C200.412 14.3 201.146 13.65 201.746 13.15C202.346 12.6167 202.812 12.35 203.146 12.35C203.379 12.35 203.579 12.4334 203.746 12.6C203.912 12.7667 203.996 12.95 203.996 13.15C203.996 13.35 203.946 13.5 203.846 13.6C203.779 13.6667 203.679 13.75 203.546 13.85C203.379 13.9834 203.179 14.15 202.946 14.35C202.712 14.5167 202.462 14.6834 202.196 14.85C201.962 15.05 201.696 15.25 201.396 15.45C201.129 15.65 200.896 15.8334 200.696 16C200.162 16.3667 199.796 16.6 199.596 16.7C199.396 16.7667 199.246 16.8 199.146 16.8C198.846 16.8 198.696 16.65 198.696 16.35ZM213.605 23.8C213.605 24.5667 213.538 25.1334 213.405 25.5C213.305 25.8667 213.155 26.1667 212.955 26.4C212.788 26.6334 212.605 26.9 212.405 27.2C212.205 27.5 212.038 27.95 211.905 28.55C211.805 29.1167 211.755 29.95 211.755 31.05C211.755 31.4834 211.922 31.8334 212.255 32.1C212.588 32.3667 212.972 32.5 213.405 32.5C213.605 32.5 213.705 32.5667 213.705 32.7C213.705 32.8667 213.572 33.0667 213.305 33.3C213.072 33.5667 212.855 33.7 212.655 33.7C211.922 33.7 211.388 33.4167 211.055 32.85C210.722 32.25 210.555 31.6167 210.555 30.95C210.555 29.85 210.588 28.9834 210.655 28.35C210.722 27.6834 210.788 27.0667 210.855 26.5C210.922 25.9 210.938 25.1667 210.905 24.3C210.872 23.7 210.788 23.2334 210.655 22.9C210.522 22.5334 210.172 22.35 209.605 22.35C209.305 22.35 209.088 22.4 208.955 22.5C208.855 22.6 208.722 22.7667 208.555 23C208.188 23.5334 207.872 24.2834 207.605 25.25C207.372 26.1834 207.172 27.1834 207.005 28.25C206.872 29.2834 206.738 30.2167 206.605 31.05C206.505 31.85 206.405 32.3834 206.305 32.65C206.205 32.8834 206.072 33.05 205.905 33.15C205.772 33.25 205.622 33.3 205.455 33.3C205.322 33.3 205.188 33.2667 205.055 33.2C204.955 33.1667 204.872 33.1334 204.805 33.1C204.638 33 204.555 32.8334 204.555 32.6C204.555 32.3667 204.605 32.1 204.705 31.8C204.838 31.4667 204.938 31.1667 205.005 30.9C205.072 30.6334 205.172 30.1667 205.305 29.5C205.472 28.8 205.638 28.0834 205.805 27.35C205.972 26.5834 206.105 25.9334 206.205 25.4C206.338 24.8334 206.405 24.55 206.405 24.55C206.238 24.55 206.072 24.5667 205.905 24.6C205.738 24.6 205.572 24.6 205.405 24.6C204.905 24.6 204.655 24.4 204.655 24C204.655 23.7334 204.755 23.3334 204.955 22.8C205.155 22.2667 205.522 21.5667 206.055 20.7C206.222 20.4334 206.555 20.1 207.055 19.7C207.555 19.3 207.972 19.1334 208.305 19.2C208.438 19.1334 208.555 19.1 208.655 19.1C208.755 19.1 208.838 19.1 208.905 19.1C209.272 19.1 209.472 19.2334 209.505 19.5C209.572 19.7334 209.588 19.9834 209.555 20.25C209.522 20.4834 209.538 20.5834 209.605 20.55C210.072 20.35 210.538 20.25 211.005 20.25C211.705 20.25 212.305 20.5334 212.805 21.1C213.338 21.6334 213.605 22.5334 213.605 23.8Z" fill="black"/>
</svg>
